<svg width="42" height="42" viewBox="0 0 42 42" fill="none" xmlns="http://www.w3.org/2000/svg">
<g opacity="0.96">
<path d="M18.3443 10.2666L7.6665 21L18.3443 31.7333C18.4407 31.8599 18.5632 31.9644 18.7035 32.0396C18.8438 32.1147 18.9987 32.1589 19.1575 32.169C19.3164 32.1791 19.4755 32.155 19.6243 32.0983C19.773 32.0416 19.9078 31.9536 20.0195 31.8402C20.1313 31.7268 20.2174 31.5908 20.272 31.4413C20.3266 31.2918 20.3484 31.1323 20.336 30.9736C20.3236 30.8149 20.2772 30.6607 20.2001 30.5215C20.1229 30.3823 20.0167 30.2613 19.8887 30.1666L11.8998 22.1111L33.1554 22.1111C33.4501 22.1111 33.7327 21.994 33.9411 21.7857C34.1494 21.5773 34.2665 21.2947 34.2665 21C34.2665 20.7053 34.1494 20.4227 33.9411 20.2143C33.7327 20.0059 33.4501 19.8889 33.1554 19.8889L11.8998 19.8889L19.8887 11.8333C20.0965 11.6241 20.2126 11.3409 20.2116 11.046C20.2105 10.7512 20.0924 10.4688 19.8832 10.2611C19.6739 10.0533 19.3908 9.9372 19.0959 9.93825C18.8011 9.93929 18.5187 10.0574 18.3109 10.2666H18.3443Z" fill="#545454"/>
<rect x="1" y="41" width="40" height="40" rx="20" transform="rotate(-90 1 41)" stroke="black" stroke-opacity="0.75"/>
<rect x="1" y="41" width="40" height="40" rx="20" transform="rotate(-90 1 41)" stroke="black" stroke-opacity="0.2"/>
</g>
</svg>
