<svg width="50" height="51" viewBox="0 0 50 51" fill="none" xmlns="http://www.w3.org/2000/svg">
<path d="M43.4028 10.9957C40.2555 10.1608 37.1808 9.07601 34.2083 7.7517C31.2839 6.49084 28.4609 5.00946 25.7639 3.32054L25 2.8512L24.25 3.33434C21.553 5.02327 18.7299 6.50464 15.8055 7.7655C12.8282 9.0858 9.7488 10.166 6.59721 10.9957L5.55554 11.258V22.7707C5.55554 41.2546 24.3472 48.1705 24.5278 48.2395L25 48.4051L25.4722 48.2395C25.6667 48.2395 44.4444 41.2684 44.4444 22.7707V11.258L43.4028 10.9957ZM41.6667 22.7707C41.6667 37.9553 27.7778 44.3191 25 45.451C22.2222 44.3191 8.33332 37.9415 8.33332 22.7707V13.3976C11.2631 12.5605 14.1311 11.5227 16.9167 10.2917C19.7024 9.09484 22.403 7.71123 25 6.15041C27.5969 7.71123 30.2976 9.09484 33.0833 10.2917C35.8689 11.5227 38.7368 12.5605 41.6667 13.3976V22.7707Z" fill="#699BF7"/>
<path d="M15.1111 24.0683C14.8454 23.8421 14.5036 23.7239 14.1541 23.7374C13.8045 23.7508 13.4729 23.8948 13.2256 24.1407C12.9782 24.3865 12.8333 24.7161 12.8198 25.0635C12.8063 25.4109 12.9252 25.7506 13.1528 26.0147L21.4861 34.2972L36.6666 19.789C36.9319 19.5327 37.0838 19.1822 37.089 18.8146C37.0942 18.447 36.9523 18.0924 36.6944 17.8288C36.4366 17.5652 36.0839 17.4142 35.7141 17.409C35.3442 17.4038 34.9874 17.5449 34.7222 17.8011L21.5694 30.4872L15.1111 24.0683Z" fill="#699BF7"/>
</svg>
