<svg width="50" height="50" viewBox="0 0 50 50" fill="none" xmlns="http://www.w3.org/2000/svg">
<path d="M45.0684 13.8476C44.4139 12.3322 43.4701 10.9589 42.29 9.80466C41.109 8.64698 39.7166 7.72698 38.1885 7.0947C36.6039 6.43646 34.9043 6.09954 33.1885 6.10349C30.7812 6.10349 28.4326 6.76267 26.3916 8.00779C25.9033 8.30564 25.4395 8.63279 25 8.98923C24.5605 8.63279 24.0967 8.30564 23.6084 8.00779C21.5674 6.76267 19.2187 6.10349 16.8115 6.10349C15.0781 6.10349 13.3984 6.43552 11.8115 7.0947C10.2783 7.72947 8.89648 8.64255 7.70996 9.80466C6.5283 10.9576 5.58436 12.3312 4.93164 13.8476C4.25293 15.4248 3.90625 17.0996 3.90625 18.8232C3.90625 20.4492 4.23828 22.1435 4.89746 23.8672C5.44922 25.3076 6.24023 26.8017 7.25098 28.3105C8.85254 30.6982 11.0547 33.1885 13.7891 35.7129C18.3203 39.8974 22.8076 42.7881 22.998 42.9053L24.1553 43.6474C24.668 43.9746 25.3271 43.9746 25.8398 43.6474L26.9971 42.9053C27.1875 42.7832 31.6699 39.8974 36.2061 35.7129C38.9404 33.1885 41.1426 30.6982 42.7441 28.3105C43.7549 26.8017 44.5508 25.3076 45.0977 23.8672C45.7568 22.1435 46.0889 20.4492 46.0889 18.8232C46.0938 17.0996 45.7471 15.4248 45.0684 13.8476Z" fill="#699BF7"/>
</svg>
