<svg width="708" height="242" viewBox="0 0 708 242" fill="none" xmlns="http://www.w3.org/2000/svg">
<path d="M196.27 203.528L189.022 177.944C188.542 176.248 188.158 174.92 187.87 173.96C187.614 172.968 187.438 172.12 187.342 171.416C186.894 171.448 186.446 171.464 185.998 171.464C185.55 171.464 185.102 171.48 184.654 171.512L184.75 169.4H196.27L196.174 170.984C194.318 171.08 193.182 171.496 192.766 172.232C192.35 172.968 192.35 174.296 192.766 176.216L195.838 187.4C196.222 188.84 196.606 190.216 196.99 191.528C197.374 192.808 197.774 194.2 198.19 195.704H198.286C198.478 195.16 198.686 194.584 198.91 193.976C199.166 193.336 199.406 192.712 199.63 192.104C199.854 191.496 200.062 190.936 200.254 190.424C200.446 189.88 200.606 189.448 200.734 189.128L208.03 169.304H209.326L214.318 187.4C214.734 188.84 215.134 190.28 215.518 191.72C215.934 193.16 216.334 194.632 216.718 196.136H216.814C217.166 195.208 217.55 194.216 217.966 193.16C218.414 192.072 218.846 190.968 219.262 189.848C220.126 187.448 220.862 185.448 221.47 183.848C222.078 182.248 222.574 180.92 222.958 179.864C223.374 178.808 223.726 177.896 224.014 177.128C224.334 176.36 224.638 175.608 224.926 174.872C225.118 174.328 225.358 173.752 225.646 173.144C225.934 172.504 226.238 171.912 226.558 171.368C225.918 171.4 225.278 171.432 224.638 171.464C223.998 171.464 223.358 171.48 222.718 171.512L222.814 169.4H232.558L232.462 170.984C231.662 171.08 230.974 171.24 230.398 171.464C229.854 171.656 229.374 171.992 228.958 172.472C228.542 172.952 228.11 173.64 227.662 174.536C227.246 175.432 226.75 176.616 226.174 178.088L216.19 203.528H214.942L209.47 184.616C208.99 182.952 208.606 181.592 208.318 180.536C208.062 179.48 207.806 178.472 207.55 177.512H207.358C206.942 178.568 206.542 179.624 206.158 180.68C205.774 181.736 205.374 182.792 204.958 183.848L197.518 203.528H196.27ZM257.669 169.4L257.477 177.8H255.893C255.989 175.912 255.765 174.488 255.221 173.528C254.709 172.536 253.973 171.88 253.013 171.56C252.053 171.208 250.965 171.048 249.749 171.08L245.621 171.176C244.437 171.208 243.573 171.432 243.029 171.848C242.517 172.264 242.181 172.888 242.021 173.72C241.893 174.52 241.781 175.576 241.685 176.888L241.253 184.568L244.709 184.616C246.053 184.616 247.157 184.536 248.021 184.376C248.885 184.216 249.525 183.816 249.941 183.176C250.389 182.536 250.645 181.512 250.709 180.104H252.293L251.765 190.568H250.181C250.245 189.16 250.101 188.152 249.749 187.544C249.397 186.936 248.805 186.568 247.973 186.44C247.141 186.312 246.037 186.28 244.661 186.344L241.157 186.488L240.581 197.48C240.549 198.344 240.501 199.08 240.437 199.688C240.373 200.296 240.309 200.808 240.245 201.224L249.413 201.08C250.821 201.048 252.053 200.824 253.109 200.408C254.165 199.96 254.997 199.192 255.605 198.104C256.245 197.016 256.613 195.528 256.709 193.64H258.341L257.573 203H232.997L233.093 201.416C234.309 201.352 235.157 201.08 235.637 200.6C236.117 200.088 236.405 199.4 236.501 198.536C236.597 197.64 236.661 196.632 236.693 195.512L237.845 174.776C237.877 174.136 237.925 173.528 237.989 172.952C238.053 172.344 238.117 171.8 238.181 171.32C237.605 171.352 237.013 171.384 236.405 171.416C235.829 171.448 235.253 171.48 234.677 171.512L234.773 169.4H257.669ZM364.012 203L364.108 201.416C365.324 201.352 366.156 201.064 366.604 200.552C367.084 200.04 367.372 199.352 367.468 198.488C367.564 197.592 367.628 196.6 367.66 195.512L367.948 190.04L360.364 176.84C359.596 175.56 359.036 174.488 358.684 173.624C358.332 172.76 358.124 172.024 358.06 171.416C357.548 171.448 357.052 171.464 356.572 171.464C356.092 171.464 355.596 171.48 355.084 171.512L355.18 169.4H367.372L367.276 170.984C365.804 170.984 364.764 171.208 364.156 171.656C363.58 172.104 363.34 172.728 363.436 173.528C363.532 174.296 363.868 175.192 364.444 176.216C364.988 177.112 365.612 178.184 366.316 179.432C367.052 180.648 367.74 181.784 368.38 182.84C368.636 183.256 368.892 183.672 369.148 184.088C369.404 184.504 369.66 184.936 369.916 185.384C370.204 185.8 370.476 186.216 370.732 186.632H370.78C371.228 185.864 371.644 185.128 372.028 184.424C372.444 183.72 372.844 183.048 373.228 182.408C373.964 181.128 374.684 179.896 375.388 178.712C376.124 177.528 376.86 176.296 377.596 175.016C377.788 174.696 378.012 174.328 378.268 173.912C378.524 173.464 378.812 173.016 379.132 172.568C379.452 172.088 379.772 171.688 380.092 171.368C379.484 171.4 378.86 171.432 378.22 171.464C377.58 171.464 376.94 171.48 376.3 171.512L376.396 169.4H386.188L386.092 170.984C384.524 171.08 383.196 171.624 382.108 172.616C381.052 173.608 379.916 175.128 378.7 177.176L372.028 188.6L371.548 197.288C371.516 198.152 371.468 198.904 371.404 199.544C371.34 200.152 371.276 200.664 371.212 201.08C371.66 201.048 372.108 201.032 372.556 201.032C373.004 201 373.436 200.968 373.852 200.936C374.3 200.904 374.748 200.888 375.196 200.888L375.1 203H364.012ZM403.197 168.632C406.013 168.632 408.429 169.128 410.445 170.12C412.461 171.112 414.109 172.424 415.389 174.056C416.701 175.656 417.661 177.448 418.269 179.432C418.877 181.384 419.181 183.336 419.181 185.288C419.181 187.336 418.813 189.448 418.077 191.624C417.373 193.768 416.301 195.768 414.861 197.624C413.421 199.448 411.597 200.936 409.389 202.088C407.213 203.208 404.653 203.768 401.709 203.768C398.893 203.768 396.477 203.288 394.461 202.328C392.445 201.336 390.781 200.04 389.469 198.44C388.189 196.84 387.245 195.08 386.637 193.16C386.029 191.208 385.725 189.256 385.725 187.304C385.725 184.84 386.125 182.488 386.925 180.248C387.757 178.008 388.941 176.024 390.477 174.296C392.013 172.536 393.853 171.16 395.997 170.168C398.141 169.144 400.541 168.632 403.197 168.632ZM402.957 170.552C400.941 170.552 399.149 171.016 397.581 171.944C396.045 172.872 394.733 174.104 393.645 175.64C392.589 177.176 391.773 178.872 391.197 180.728C390.621 182.552 390.333 184.392 390.333 186.248C390.301 187.88 390.493 189.608 390.909 191.432C391.325 193.224 391.981 194.904 392.877 196.472C393.805 198.04 395.005 199.32 396.477 200.312C397.981 201.304 399.805 201.8 401.949 201.8C404.029 201.8 405.853 201.336 407.421 200.408C408.989 199.48 410.301 198.248 411.357 196.712C412.413 195.144 413.213 193.432 413.757 191.576C414.301 189.72 414.573 187.88 414.573 186.056C414.573 184.168 414.317 182.312 413.805 180.488C413.325 178.632 412.589 176.968 411.597 175.496C410.637 173.992 409.437 172.792 407.997 171.896C406.557 171 404.877 170.552 402.957 170.552ZM456.583 169.4L456.535 170.984C455.319 171.016 454.471 171.288 453.991 171.8C453.511 172.312 453.223 173 453.127 173.864C453.031 174.728 452.951 175.736 452.887 176.888L452.215 188.072C452.087 190.152 451.751 192.136 451.207 194.024C450.663 195.912 449.847 197.592 448.759 199.064C447.703 200.504 446.327 201.656 444.631 202.52C442.935 203.352 440.887 203.768 438.487 203.768C435.927 203.768 433.799 203.432 432.103 202.76C430.407 202.088 429.079 201.064 428.119 199.688C427.191 198.28 426.551 196.504 426.199 194.36C425.879 192.216 425.799 189.656 425.959 186.68L426.583 175.208C426.647 174.376 426.695 173.672 426.727 173.096C426.791 172.52 426.871 171.928 426.967 171.32C426.391 171.352 425.815 171.384 425.239 171.416C424.663 171.416 424.087 171.432 423.511 171.464L423.607 169.4H434.263L434.167 170.984C433.079 170.984 432.295 171.208 431.815 171.656C431.335 172.104 431.015 172.632 430.855 173.24C430.727 173.816 430.647 174.328 430.615 174.776L429.991 186.92C429.895 188.712 429.927 190.456 430.087 192.152C430.247 193.816 430.631 195.32 431.239 196.664C431.847 198.008 432.791 199.08 434.071 199.88C435.351 200.648 437.063 201.032 439.207 201.032C441.511 201.032 443.399 200.488 444.871 199.4C446.375 198.312 447.527 196.824 448.327 194.936C449.127 193.016 449.607 190.808 449.767 188.312L450.631 174.776C450.695 174.136 450.743 173.528 450.775 172.952C450.839 172.344 450.903 171.8 450.967 171.32C450.391 171.352 449.815 171.384 449.239 171.416C448.663 171.448 448.087 171.48 447.511 171.512L447.607 169.4H456.583ZM486.974 169.4L486.734 179.528H484.91C484.974 177.64 484.862 176.072 484.574 174.824C484.286 173.576 483.71 172.648 482.846 172.04C482.014 171.4 480.766 171.096 479.102 171.128L475.022 171.176L473.438 197.288C473.406 198.152 473.358 198.904 473.294 199.544C473.23 200.152 473.166 200.664 473.102 201.08C473.55 201.048 473.998 201.032 474.446 201.032C474.894 201 475.326 200.968 475.742 200.936C476.19 200.904 476.638 200.888 477.086 200.888L476.99 203H465.902L465.998 201.416C467.054 201.352 467.806 201.064 468.254 200.552C468.734 200.04 469.054 199.352 469.214 198.488C469.374 197.592 469.486 196.6 469.55 195.512L471.038 171.176L466.094 171.224C464.078 171.224 462.622 171.896 461.726 173.24C460.83 174.584 460.302 176.68 460.142 179.528H458.366L459.182 169.4H486.974ZM522.674 169.4L522.578 170.984C521.554 171.016 520.786 171.24 520.274 171.656C519.794 172.072 519.474 172.664 519.314 173.432C519.154 174.168 519.042 175.112 518.978 176.264L517.874 197.288C517.842 198.152 517.794 198.904 517.73 199.544C517.666 200.152 517.602 200.664 517.538 201.08C518.114 201.048 518.69 201.016 519.266 200.984C519.842 200.952 520.418 200.92 520.994 200.888L520.898 203H510.29L510.386 201.416C511.602 201.352 512.45 201.08 512.93 200.6C513.41 200.088 513.698 199.4 513.794 198.536C513.89 197.64 513.954 196.632 513.986 195.512L514.466 186.776L497.234 186.968L496.706 197.288C496.674 198.152 496.626 198.904 496.562 199.544C496.498 200.152 496.434 200.664 496.37 201.08C496.946 201.048 497.522 201.016 498.098 200.984C498.674 200.952 499.25 200.92 499.826 200.888L499.73 203H489.122L489.218 201.416C490.434 201.352 491.266 201.08 491.714 200.6C492.194 200.088 492.482 199.4 492.578 198.536C492.674 197.64 492.754 196.632 492.818 195.512L493.922 174.776C493.986 174.136 494.034 173.528 494.066 172.952C494.13 172.344 494.194 171.8 494.258 171.32C493.682 171.352 493.106 171.384 492.53 171.416C491.954 171.448 491.378 171.48 490.802 171.512L490.898 169.4H501.506L501.41 170.984C500.386 171.016 499.618 171.24 499.106 171.656C498.626 172.072 498.306 172.664 498.146 173.432C497.986 174.2 497.874 175.16 497.81 176.312L497.33 184.856H514.562L515.09 174.776C515.122 174.136 515.17 173.528 515.234 172.952C515.298 172.344 515.362 171.8 515.426 171.32C514.85 171.352 514.274 171.384 513.698 171.416C513.122 171.448 512.546 171.48 511.97 171.512L512.066 169.4H522.674Z" fill="black"/>
<path d="M286.572 169.4L286.38 177.8H284.796C284.892 175.912 284.652 174.488 284.076 173.528C283.532 172.536 282.764 171.88 281.772 171.56C280.812 171.208 279.724 171.048 278.508 171.08L275.004 171.176C273.916 171.208 273.116 171.432 272.604 171.848C272.124 172.264 271.82 172.872 271.692 173.672C271.564 174.44 271.468 175.384 271.404 176.504L270.924 185.336H274.668C275.82 185.304 276.748 185.192 277.452 185C278.156 184.808 278.684 184.392 279.036 183.752C279.42 183.112 279.644 182.136 279.708 180.824H281.292L280.764 191.336H279.18C279.244 190.024 279.116 189.08 278.796 188.504C278.508 187.896 278.012 187.512 277.308 187.352C276.636 187.192 275.724 187.112 274.572 187.112C273.964 187.112 273.34 187.128 272.7 187.16C272.092 187.16 271.468 187.192 270.828 187.256L270.3 197.288C270.268 198.152 270.22 198.904 270.156 199.544C270.092 200.152 270.028 200.664 269.964 201.08C270.508 201.048 271.052 201.032 271.596 201.032C272.14 201 272.684 200.968 273.228 200.936C273.772 200.904 274.316 200.888 274.86 200.888L274.764 203H262.716L262.812 201.416C264.028 201.352 264.876 201.08 265.356 200.6C265.836 200.088 266.124 199.4 266.22 198.536C266.316 197.64 266.38 196.632 266.412 195.512L267.564 174.776C267.596 174.136 267.644 173.528 267.708 172.952C267.772 172.344 267.836 171.8 267.9 171.32C267.324 171.352 266.732 171.384 266.124 171.416C265.548 171.448 264.972 171.48 264.396 171.512L264.492 169.4H286.572ZM306.54 168.632C309.356 168.632 311.772 169.128 313.788 170.12C315.804 171.112 317.452 172.424 318.732 174.056C320.044 175.656 321.004 177.448 321.612 179.432C322.22 181.384 322.524 183.336 322.524 185.288C322.524 187.336 322.156 189.448 321.42 191.624C320.716 193.768 319.644 195.768 318.204 197.624C316.764 199.448 314.94 200.936 312.732 202.088C310.556 203.208 307.996 203.768 305.052 203.768C302.236 203.768 299.82 203.288 297.804 202.328C295.788 201.336 294.124 200.04 292.812 198.44C291.532 196.84 290.588 195.08 289.98 193.16C289.372 191.208 289.068 189.256 289.068 187.304C289.068 184.84 289.468 182.488 290.268 180.248C291.1 178.008 292.284 176.024 293.82 174.296C295.356 172.536 297.196 171.16 299.34 170.168C301.484 169.144 303.884 168.632 306.54 168.632ZM306.3 170.552C304.284 170.552 302.492 171.016 300.924 171.944C299.388 172.872 298.076 174.104 296.988 175.64C295.932 177.176 295.116 178.872 294.54 180.728C293.964 182.552 293.676 184.392 293.676 186.248C293.644 187.88 293.836 189.608 294.252 191.432C294.668 193.224 295.324 194.904 296.22 196.472C297.148 198.04 298.348 199.32 299.82 200.312C301.324 201.304 303.148 201.8 305.292 201.8C307.372 201.8 309.196 201.336 310.764 200.408C312.332 199.48 313.644 198.248 314.7 196.712C315.756 195.144 316.556 193.432 317.1 191.576C317.644 189.72 317.916 187.88 317.916 186.056C317.916 184.168 317.66 182.312 317.148 180.488C316.668 178.632 315.932 176.968 314.94 175.496C313.98 173.992 312.78 172.792 311.34 171.896C309.9 171 308.22 170.552 306.3 170.552ZM338.62 169.304C341.724 169.336 344.188 169.736 346.012 170.504C347.868 171.272 349.18 172.312 349.948 173.624C350.748 174.904 351.1 176.392 351.004 178.088C350.94 179.304 350.636 180.552 350.092 181.832C349.58 183.08 348.668 184.216 347.356 185.24C346.044 186.264 344.156 187.032 341.692 187.544C342.204 188.12 342.588 188.552 342.844 188.84C343.1 189.096 343.308 189.32 343.468 189.512C343.628 189.672 343.804 189.912 343.996 190.232C344.188 190.552 344.476 191.048 344.86 191.72L347.836 196.856C348.348 197.72 348.828 198.504 349.276 199.208C349.756 199.88 350.316 200.424 350.956 200.84C351.628 201.224 352.46 201.416 353.452 201.416L353.356 203H347.5C346.796 202.392 346.108 201.624 345.436 200.696C344.796 199.736 344.156 198.728 343.516 197.672L340.588 192.536C340.204 191.832 339.772 191.048 339.292 190.184C338.812 189.32 338.252 188.584 337.612 187.976C337.324 188.008 336.908 188.024 336.364 188.024C335.852 188.024 335.372 188.024 334.924 188.024C334.476 187.992 334.204 187.976 334.108 187.976L333.628 197.288C333.596 198.152 333.548 198.904 333.484 199.544C333.42 200.152 333.356 200.664 333.292 201.08C333.676 201.048 334.06 201.032 334.444 201.032C334.828 201 335.212 200.968 335.596 200.936C335.98 200.904 336.364 200.888 336.748 200.888L336.652 203H326.044L326.14 201.416C327.356 201.352 328.204 201.08 328.684 200.6C329.164 200.088 329.452 199.4 329.548 198.536C329.644 197.64 329.708 196.632 329.74 195.512L330.844 174.776C330.876 174.136 330.924 173.528 330.988 172.952C331.052 172.344 331.116 171.8 331.18 171.32C330.604 171.352 330.012 171.384 329.404 171.416C328.828 171.448 328.252 171.48 327.676 171.512L327.82 169.4C329.612 169.368 331.388 169.336 333.148 169.304C334.94 169.272 336.764 169.272 338.62 169.304ZM338.332 171.128C337.212 171.128 336.412 171.352 335.932 171.8C335.452 172.248 335.148 172.888 335.02 173.72C334.892 174.52 334.796 175.496 334.732 176.648L334.204 186.104C334.716 186.136 335.196 186.168 335.644 186.2C336.124 186.232 336.636 186.232 337.18 186.2C338.94 186.136 340.508 185.848 341.884 185.336C343.26 184.824 344.348 184.008 345.148 182.888C345.98 181.768 346.444 180.296 346.54 178.472C346.604 177.256 346.476 176.2 346.156 175.304C345.868 174.376 345.388 173.608 344.716 173C344.076 172.36 343.212 171.896 342.124 171.608C341.068 171.288 339.804 171.128 338.332 171.128Z" fill="#4387CA"/>
<path d="M317.82 109L285.692 19.4H298.492L326.012 97.096H322.428L349.948 19.4H362.748L330.62 109H317.82Z" fill="black"/>
<path d="M348.978 111L324.882 43.8H334.482L355.122 102.072H352.434L373.074 43.8H382.674L358.578 111H348.978Z" fill="black"/>
<path d="M312.318 40.2934C322.756 45.545 329.303 32.8508 326.522 27.9726C331.745 31.0977 344.291 25.4432 339.923 14.7831C335.081 2.95061 311.867 9.80718 309.513 9.56707C309.316 11.6616 301.054 34.6977 312.318 40.2934Z" fill="#4387CA"/>
<path d="M312.59 43.6652C313.872 44.3931 315.273 44.8099 316.742 44.8614C318.157 44.9635 319.64 44.7003 320.922 44.2199C321.616 43.9815 322.209 43.6346 322.802 43.2876C323.126 43.0888 323.345 42.8864 323.669 42.6876L324.436 41.979L322.52 42.5422C321.881 42.73 321.242 42.9177 320.608 43.0006C319.335 43.2712 318.071 43.3319 316.811 43.2878C315.552 43.2437 314.356 42.9391 313.061 42.5259C312.44 42.294 311.82 42.0622 311.254 41.7797C310.944 41.6637 310.638 41.4429 310.328 41.3269L309.402 40.8742C309.598 41.1963 309.849 41.4677 310.05 41.6849C310.3 41.9564 310.551 42.2278 310.807 42.3944C311.363 42.8867 311.975 43.3284 312.59 43.6652ZM312.85 46.1435C313.256 46.4729 313.662 46.8023 314.122 47.0812C315.044 47.6388 316.134 47.9397 317.234 48.0308C318.334 48.1219 319.392 47.9488 320.305 47.508C320.789 47.2623 321.218 47.0672 321.651 46.7671C321.816 46.6153 322.085 46.4671 322.249 46.3153C322.413 46.1634 322.633 45.961 322.747 45.7548C322.482 45.7981 322.268 45.8956 322.003 45.9389C321.843 45.9858 321.579 46.0291 321.364 46.1267C320.885 46.2675 320.461 46.3577 319.986 46.3936C319.087 46.5197 318.138 46.5915 317.298 46.5621C316.409 46.4783 315.523 46.2897 314.588 46.0468C314.173 45.9272 313.708 45.7533 313.242 45.5793C313.037 45.4671 312.777 45.4054 312.572 45.2932C312.366 45.1809 312.106 45.1192 311.851 44.9527C311.997 45.2205 312.147 45.3834 312.348 45.6005L312.85 46.1435ZM341.543 13.7892C341.78 14.3754 342.013 15.0665 342.145 15.649C342.509 16.9226 342.664 18.1889 342.609 19.4478C342.554 20.7067 342.394 21.962 342.024 23.2098C341.891 23.8356 341.654 24.4577 341.416 25.0798L340.704 26.9461L341.47 26.2375C341.744 25.9844 341.913 25.7277 342.137 25.4203C342.529 24.8562 342.922 24.292 343.214 23.6193C343.794 22.3788 344.119 20.9717 344.128 19.5536C344.138 18.1355 343.887 16.6557 343.263 15.3205C342.976 14.68 342.583 14.0358 342.187 13.4965C341.99 13.1745 341.74 12.903 341.539 12.6858C341.288 12.4143 341.037 12.1429 340.782 11.9763L341.16 12.9352C341.306 13.203 341.452 13.4708 341.543 13.7892ZM345.73 20.1876C345.743 21.0812 345.597 22.0217 345.4 22.9079C345.277 23.3239 345.149 23.8447 345.026 24.2607C344.962 24.5211 344.847 24.7273 344.783 24.9877C344.72 25.2481 344.605 25.4543 344.541 25.7147C344.706 25.5629 344.975 25.4147 345.139 25.2628C345.304 25.111 345.523 24.9085 345.637 24.7024C345.97 24.2938 346.198 23.8815 346.481 23.4186C346.947 22.3842 347.203 21.3425 347.249 20.2934C347.245 19.19 347.031 18.0793 346.547 17.1167C346.306 16.6354 346.009 16.2047 345.713 15.7741L345.161 15.1768C344.96 14.9597 344.81 14.7968 344.554 14.6302C344.65 14.8437 344.691 15.1078 344.837 15.3756C344.928 15.694 345.024 15.9075 345.065 16.1716C345.202 16.6493 345.338 17.1269 345.425 17.5502C345.648 18.4511 345.766 19.3483 345.73 20.1876ZM330.143 5.29924L330.098 5.14004C329.071 4.57871 328.031 4.33212 326.991 4.08552C325.95 3.83892 324.901 3.80214 323.902 3.81965C322.902 3.83717 321.848 3.90529 320.79 4.07833C319.731 4.25137 318.718 4.58361 317.696 5.12567L317.741 5.28488C319.84 5.35844 321.889 5.3777 323.938 5.39697C325.991 5.31133 328.09 5.38489 330.143 5.29924ZM330.938 1.54458L330.893 1.38537C329.657 0.816691 328.461 0.512122 327.261 0.31246C326.061 0.112799 324.857 0.0180459 323.647 0.0282034C322.438 0.0383609 321.279 0.102813 320.011 0.268495C318.792 0.488471 317.574 0.708448 316.392 1.29745L316.438 1.45665C318.851 1.54124 321.27 1.52093 323.683 1.60552C326.102 1.58521 328.57 1.61919 330.938 1.54458ZM302.595 23.5091C302.549 24.5582 302.503 25.6073 302.617 26.6095C302.731 27.6116 302.945 28.7224 303.424 29.7899L303.579 29.8478C303.826 27.8076 303.918 25.7094 304.165 23.6692C304.307 21.6253 304.449 19.5814 304.541 17.4832L304.386 17.4253C303.765 18.4017 303.404 19.4397 303.098 20.4272C302.842 21.4689 302.746 22.4637 302.595 23.5091ZM300.46 23.0666C300.566 20.6536 300.777 18.2444 300.882 15.8315L300.727 15.7735C300.097 16.9598 299.732 18.1027 299.416 19.3C299.101 20.4972 298.946 21.6476 298.89 22.9065C298.785 24.1111 298.785 25.3194 298.889 26.5314C298.994 27.7433 299.203 28.959 299.673 30.2363L299.828 30.2943C300.089 27.9393 300.249 25.4758 300.46 23.0666Z" fill="#4387CA"/>
</svg>
