<svg width="19" height="19" viewBox="0 0 19 19" fill="none" xmlns="http://www.w3.org/2000/svg">
<path d="M9.5 0C4.25329 0 0 4.25329 0 9.5C0 14.7467 4.25329 19 9.5 19C14.7467 19 19 14.7467 19 9.5C19 4.25329 14.7467 0 9.5 0ZM8.77289 4.47168L9.18108 6.35153C7.98502 6.61627 6.88517 6.9606 6.97424 8.29627H8.37976V13.2991H4.14582V8.62329C4.14732 4.90735 6.8755 4.60501 8.77289 4.47168ZM14.4448 4.47168L14.8542 6.35153C13.6581 6.61627 12.5583 6.9606 12.6473 8.29627H14.0529V13.2991H9.81892V8.62329C9.8204 4.90735 12.5474 4.60501 14.4448 4.47168Z" fill="#0A66C2"/>
</svg>
