<svg width="55" height="55" viewBox="0 0 55 55" fill="none" xmlns="http://www.w3.org/2000/svg">
<path d="M18.2205 54.0088L0 9.60139H7.25914L22.8663 48.1089H20.8337L36.4409 9.60139H43.7001L25.4796 54.0088H18.2205Z" fill="black"/>
<path d="M35.8903 55L22.225 21.6945H27.6693L39.3747 50.5751H37.8503L49.5556 21.6945H55L41.3347 55H35.8903Z" fill="black"/>
<path d="M15.0998 19.9565C21.0195 22.5593 24.7327 16.2678 23.1552 13.8501C26.1175 15.3989 33.2322 12.5965 30.7552 7.31317C28.0094 1.44876 14.8443 4.847 13.5091 4.728C13.3974 5.76607 8.71181 17.1832 15.0998 19.9565Z" fill="#4387CA"/>
<path d="M15.2544 21.6277C15.9814 21.9884 16.7758 22.195 17.609 22.2205C18.4112 22.2711 19.2522 22.1407 19.9795 21.9026C20.3729 21.7844 20.7093 21.6125 21.0458 21.4405C21.2296 21.342 21.3538 21.2416 21.5376 21.1431L21.9725 20.7919L20.8855 21.0711C20.5232 21.1641 20.1609 21.2572 19.8012 21.2982C19.0791 21.4324 18.3623 21.4625 17.6481 21.4406C16.9339 21.4187 16.256 21.2678 15.5212 21.063C15.1693 20.9481 14.8174 20.8331 14.4966 20.6931C14.3206 20.6357 14.1473 20.5262 13.9714 20.4688L13.4461 20.2444C13.5574 20.404 13.6996 20.5385 13.8134 20.6462C13.9557 20.7807 14.098 20.9153 14.2429 20.9978C14.5585 21.2418 14.9051 21.4607 15.2544 21.6277ZM15.4014 22.8559C15.6317 23.0192 15.8619 23.1825 16.1232 23.3207C16.6459 23.597 17.2643 23.7462 17.8879 23.7913C18.5115 23.8364 19.1119 23.7507 19.6295 23.5322C19.9039 23.4104 20.1471 23.3137 20.393 23.165C20.4862 23.0898 20.6389 23.0163 20.7321 22.9411C20.8253 22.8658 20.9496 22.7655 21.0143 22.6633C20.8642 22.6847 20.7425 22.7331 20.5924 22.7545C20.5019 22.7778 20.3518 22.7992 20.2301 22.8476C19.9584 22.9174 19.7177 22.9621 19.4486 22.9799C18.9388 23.0424 18.4005 23.078 17.9244 23.0634C17.4198 23.0219 16.9178 22.9284 16.3874 22.808C16.1519 22.7487 15.888 22.6625 15.6241 22.5763C15.5077 22.5207 15.3602 22.4901 15.2438 22.4345C15.1273 22.3789 14.9798 22.3483 14.835 22.2657C14.9177 22.3985 15.0031 22.4792 15.1169 22.5868L15.4014 22.8559ZM31.6741 6.82056C31.8085 7.11109 31.9404 7.45362 32.0153 7.74232C32.2221 8.37355 32.3098 9.00114 32.2785 9.62508C32.2472 10.249 32.1564 10.8711 31.9466 11.4896C31.8714 11.7998 31.7367 12.1081 31.602 12.4164L31.198 13.3414L31.6329 12.9902C31.7882 12.8647 31.884 12.7375 32.0108 12.5851C32.2335 12.3056 32.4561 12.026 32.6219 11.6926C32.9508 11.0777 33.1348 10.3804 33.1402 9.67751C33.1457 8.97466 33.0036 8.24127 32.6494 7.57948C32.4865 7.26204 32.264 6.94278 32.039 6.67552C31.9278 6.51589 31.7855 6.38134 31.6717 6.2737C31.5294 6.13916 31.3872 6.00462 31.2423 5.92207L31.4569 6.39731C31.5396 6.53003 31.6224 6.66276 31.6741 6.82056ZM34.0484 9.99174C34.056 10.4346 33.973 10.9007 33.8615 11.34C33.7916 11.5461 33.719 11.8043 33.6491 12.0104C33.6128 12.1395 33.5481 12.2417 33.5118 12.3707C33.4755 12.4998 33.4108 12.602 33.3745 12.7311C33.4677 12.6558 33.6204 12.5824 33.7136 12.5071C33.8068 12.4319 33.931 12.3315 33.9958 12.2293C34.1847 12.0268 34.3142 11.8225 34.4747 11.5931C34.7389 11.0804 34.884 10.5641 34.9101 10.0442C34.9077 9.49731 34.7863 8.9468 34.5122 8.46973C34.3751 8.2312 34.207 8.01775 34.0389 7.8043L33.7259 7.5083C33.6121 7.40067 33.5267 7.31994 33.3818 7.23739C33.4361 7.3432 33.4594 7.4741 33.5421 7.60682C33.5938 7.76463 33.6481 7.87045 33.6713 8.00134C33.7489 8.23806 33.8264 8.47477 33.8755 8.68457C34.0021 9.13109 34.0692 9.57578 34.0484 9.99174ZM25.209 2.61279L25.1832 2.53388C24.601 2.25568 24.0111 2.13346 23.4211 2.01124C22.8312 1.88902 22.236 1.8708 21.6693 1.87948C21.1026 1.88816 20.5048 1.92192 19.9044 2.00768C19.304 2.09344 18.7295 2.25811 18.1497 2.52676L18.1756 2.60567C19.3659 2.64212 20.5278 2.65167 21.6897 2.66122C22.8542 2.61878 24.0445 2.65523 25.209 2.61279ZM25.66 0.751908L25.6341 0.673004C24.933 0.391154 24.2551 0.240204 23.5745 0.141248C22.894 0.0422928 22.2109 -0.00466866 21.5251 0.000365561C20.8394 0.00539979 20.1821 0.0373434 19.4627 0.119459C18.7717 0.228483 18.0807 0.337507 17.4104 0.629425L17.4362 0.708328C18.8051 0.750254 20.1766 0.740187 21.5455 0.782113C22.917 0.772045 24.317 0.788885 25.66 0.751908ZM9.58602 11.6379C9.55994 12.1579 9.53387 12.6778 9.59837 13.1745C9.66287 13.6712 9.78427 14.2217 10.0558 14.7508L10.1438 14.7795C10.2839 13.7683 10.336 12.7284 10.4762 11.7173C10.5568 10.7043 10.6374 9.6913 10.6896 8.6514L10.6016 8.62267C10.2495 9.1066 10.0448 9.62108 9.87127 10.1105C9.72615 10.6268 9.67162 11.1198 9.58602 11.6379ZM8.37506 11.4186C8.43504 10.2227 8.55454 9.02864 8.61452 7.83276L8.52655 7.80403C8.16922 8.39194 7.96198 8.95842 7.78319 9.55181C7.60441 10.1452 7.51621 10.7153 7.48491 11.3393C7.42516 11.9363 7.42493 12.5351 7.48421 13.1358C7.5435 13.7365 7.6623 14.339 7.92859 14.972L8.01656 15.0008C8.16451 13.8336 8.25556 12.6127 8.37506 11.4186Z" fill="#4387CA"/>
</svg>
