<svg width="113" height="300" viewBox="0 0 113 20" fill="none" xmlns="http://www.w3.org/2000/svg">
<path d="M10.8492 3.62C11.0092 4.16667 11.1826 4.78667 11.3692 5.48C11.5692 6.16 11.7759 6.86667 11.9892 7.6C12.2159 8.33333 12.4426 9.06667 12.6692 9.8C12.8959 10.5333 13.1159 11.2133 13.3292 11.84C13.5026 11.16 13.6759 10.42 13.8492 9.62C14.0359 8.82 14.2092 7.99333 14.3692 7.14C14.5292 6.28667 14.6826 5.44 14.8292 4.6C14.9892 3.74667 15.1359 2.92667 15.2692 2.14H18.5092C18.0426 4.46 17.5026 6.81333 16.8892 9.2C16.2892 11.5867 15.6359 13.8533 14.9292 16H12.0692C11.6026 14.72 11.1492 13.38 10.7092 11.98C10.2692 10.5667 9.83589 9.15333 9.40922 7.74C8.98255 9.15333 8.55589 10.5667 8.12922 11.98C7.70255 13.38 7.25589 14.72 6.78922 16H3.92922C3.22255 13.8533 2.56255 11.5867 1.94922 9.2C1.34922 6.81333 0.815885 4.46 0.349219 2.14H3.72922C3.86255 2.92667 4.00922 3.74667 4.16922 4.6C4.32922 5.44 4.49589 6.28667 4.66922 7.14C4.84255 7.99333 5.01589 8.82 5.18922 9.62C5.37589 10.42 5.56255 11.16 5.74922 11.84C5.98922 11.1867 6.22255 10.4933 6.44922 9.76C6.67589 9.02667 6.89589 8.29333 7.10922 7.56C7.32255 6.82667 7.51589 6.12 7.68922 5.44C7.87589 4.76 8.04255 4.15333 8.18922 3.62H10.8492ZM19.15 10.82C19.15 9.88667 19.29 9.07333 19.57 8.38C19.8633 7.67333 20.2433 7.08667 20.71 6.62C21.1767 6.15333 21.71 5.8 22.31 5.56C22.9233 5.32 23.55 5.2 24.19 5.2C25.6833 5.2 26.8633 5.66 27.73 6.58C28.5967 7.48667 29.03 8.82667 29.03 10.6C29.03 10.7733 29.0233 10.9667 29.01 11.18C28.9967 11.38 28.9833 11.56 28.97 11.72H22.21C22.2767 12.3333 22.5633 12.82 23.07 13.18C23.5767 13.54 24.2567 13.72 25.11 13.72C25.6567 13.72 26.19 13.6733 26.71 13.58C27.2433 13.4733 27.6767 13.3467 28.01 13.2L28.41 15.62C28.25 15.7 28.0367 15.78 27.77 15.86C27.5033 15.94 27.2033 16.0067 26.87 16.06C26.55 16.1267 26.2033 16.18 25.83 16.22C25.4567 16.26 25.0833 16.28 24.71 16.28C23.7633 16.28 22.9367 16.14 22.23 15.86C21.5367 15.58 20.9567 15.2 20.49 14.72C20.0367 14.2267 19.6967 13.6467 19.47 12.98C19.2567 12.3133 19.15 11.5933 19.15 10.82ZM26.15 9.68C26.1367 9.42667 26.09 9.18 26.01 8.94C25.9433 8.7 25.83 8.48667 25.67 8.3C25.5233 8.11333 25.33 7.96 25.09 7.84C24.8633 7.72 24.5767 7.66 24.23 7.66C23.8967 7.66 23.61 7.72 23.37 7.84C23.13 7.94667 22.93 8.09333 22.77 8.28C22.61 8.46667 22.4833 8.68667 22.39 8.94C22.31 9.18 22.25 9.42667 22.21 9.68H26.15ZM69.5369 5.48C68.9369 7.50667 68.3102 9.40667 67.6569 11.18C67.0035 12.9533 66.2902 14.6733 65.5169 16.34C65.2369 16.94 64.9569 17.4467 64.6769 17.86C64.3969 18.2867 64.0902 18.6333 63.7569 18.9C63.4235 19.18 63.0435 19.38 62.6169 19.5C62.2035 19.6333 61.7169 19.7 61.1569 19.7C60.6902 19.7 60.2569 19.6533 59.8569 19.56C59.4702 19.48 59.1502 19.3867 58.8969 19.28L59.4169 16.9C59.7235 17.0067 59.9969 17.08 60.2369 17.12C60.4769 17.16 60.7302 17.18 60.9969 17.18C61.5302 17.18 61.9369 17.0333 62.2169 16.74C62.5102 16.46 62.7569 16.0667 62.9569 15.56C62.2769 14.2267 61.5969 12.7333 60.9169 11.08C60.2369 9.41333 59.5969 7.54667 58.9969 5.48H62.1569C62.2902 6 62.4435 6.56667 62.6169 7.18C62.8035 7.78 62.9969 8.39333 63.1969 9.02C63.3969 9.63333 63.5969 10.2333 63.7969 10.82C64.0102 11.4067 64.2102 11.94 64.3969 12.42C64.5702 11.94 64.7502 11.4067 64.9369 10.82C65.1235 10.2333 65.3035 9.63333 65.4769 9.02C65.6635 8.39333 65.8369 7.78 65.9969 7.18C66.1702 6.56667 66.3235 6 66.4569 5.48H69.5369ZM80.7009 10.72C80.7009 11.5467 80.5809 12.3067 80.3409 13C80.1009 13.68 79.7543 14.2667 79.3009 14.76C78.8476 15.24 78.3009 15.6133 77.6609 15.88C77.0343 16.1467 76.3276 16.28 75.5409 16.28C74.7676 16.28 74.0609 16.1467 73.4209 15.88C72.7943 15.6133 72.2543 15.24 71.8009 14.76C71.3476 14.2667 70.9943 13.68 70.7409 13C70.4876 12.3067 70.3609 11.5467 70.3609 10.72C70.3609 9.89333 70.4876 9.14 70.7409 8.46C71.0076 7.78 71.3676 7.2 71.8209 6.72C72.2876 6.24 72.8343 5.86667 73.4609 5.6C74.1009 5.33333 74.7943 5.2 75.5409 5.2C76.3009 5.2 76.9943 5.33333 77.6209 5.6C78.2609 5.86667 78.8076 6.24 79.2609 6.72C79.7143 7.2 80.0676 7.78 80.3209 8.46C80.5743 9.14 80.7009 9.89333 80.7009 10.72ZM77.6609 10.72C77.6609 9.8 77.4743 9.08 77.1009 8.56C76.7409 8.02667 76.2209 7.76 75.5409 7.76C74.8609 7.76 74.3343 8.02667 73.9609 8.56C73.5876 9.08 73.4009 9.8 73.4009 10.72C73.4009 11.64 73.5876 12.3733 73.9609 12.92C74.3343 13.4533 74.8609 13.72 75.5409 13.72C76.2209 13.72 76.7409 13.4533 77.1009 12.92C77.4743 12.3733 77.6609 11.64 77.6609 10.72ZM91.9894 15.64C91.4827 15.7867 90.8294 15.92 90.0294 16.04C89.2294 16.1733 88.3894 16.24 87.5094 16.24C86.616 16.24 85.8694 16.12 85.2694 15.88C84.6827 15.64 84.216 15.3067 83.8694 14.88C83.5227 14.44 83.276 13.92 83.1294 13.32C82.9827 12.72 82.9094 12.06 82.9094 11.34V5.48H85.8894V10.98C85.8894 11.94 86.016 12.6333 86.2694 13.06C86.5227 13.4867 86.996 13.7 87.6894 13.7C87.9027 13.7 88.1294 13.6933 88.3694 13.68C88.6094 13.6533 88.8227 13.6267 89.0094 13.6V5.48H91.9894V15.64ZM94.6867 2.86L97.6667 2.38V5.48H101.247V7.96H97.6667V11.66C97.6667 12.2867 97.7734 12.7867 97.9867 13.16C98.2134 13.5333 98.6601 13.72 99.3267 13.72C99.6467 13.72 99.9734 13.6933 100.307 13.64C100.653 13.5733 100.967 13.4867 101.247 13.38L101.667 15.7C101.307 15.8467 100.907 15.9733 100.467 16.08C100.027 16.1867 99.4867 16.24 98.8467 16.24C98.0334 16.24 97.3601 16.1333 96.8267 15.92C96.2934 15.6933 95.8667 15.3867 95.5467 15C95.2267 14.6 95.0001 14.12 94.8667 13.56C94.7467 13 94.6867 12.38 94.6867 11.7V2.86ZM103.673 16V0.959999L106.653 0.48V5.52C106.853 5.45333 107.107 5.39333 107.413 5.34C107.733 5.27333 108.04 5.24 108.333 5.24C109.187 5.24 109.893 5.36 110.453 5.6C111.027 5.82667 111.48 6.15333 111.813 6.58C112.16 7.00667 112.4 7.51333 112.533 8.1C112.68 8.68667 112.753 9.34 112.753 10.06V16H109.773V10.42C109.773 9.46 109.647 8.78 109.393 8.38C109.153 7.98 108.7 7.78 108.033 7.78C107.767 7.78 107.513 7.80667 107.273 7.86C107.047 7.9 106.84 7.94667 106.653 8V16H103.673Z" fill="black"/>
<path d="M35.8897 0.48C36.4497 0.48 36.963 0.54 37.4297 0.66C37.8964 0.766666 38.2564 0.873332 38.5097 0.979999L37.9297 3.36C37.663 3.24 37.3697 3.15333 37.0497 3.1C36.743 3.03333 36.4564 3 36.1897 3C35.8297 3 35.523 3.05333 35.2697 3.16C35.0297 3.25333 34.8364 3.38667 34.6897 3.56C34.5564 3.73333 34.4564 3.94 34.3897 4.18C34.3364 4.42 34.3097 4.68 34.3097 4.96V5.48H37.9897V7.96H34.3097V16H31.3297V4.92C31.3297 3.56 31.7097 2.48 32.4697 1.68C33.243 0.88 34.383 0.48 35.8897 0.48ZM49.4509 10.72C49.4509 11.5467 49.3309 12.3067 49.0909 13C48.8509 13.68 48.5043 14.2667 48.0509 14.76C47.5976 15.24 47.0509 15.6133 46.4109 15.88C45.7843 16.1467 45.0776 16.28 44.2909 16.28C43.5176 16.28 42.8109 16.1467 42.1709 15.88C41.5443 15.6133 41.0043 15.24 40.5509 14.76C40.0976 14.2667 39.7443 13.68 39.4909 13C39.2376 12.3067 39.1109 11.5467 39.1109 10.72C39.1109 9.89333 39.2376 9.14 39.4909 8.46C39.7576 7.78 40.1176 7.2 40.5709 6.72C41.0376 6.24 41.5843 5.86667 42.2109 5.6C42.8509 5.33333 43.5443 5.2 44.2909 5.2C45.0509 5.2 45.7443 5.33333 46.3709 5.6C47.0109 5.86667 47.5576 6.24 48.0109 6.72C48.4643 7.2 48.8176 7.78 49.0709 8.46C49.3243 9.14 49.4509 9.89333 49.4509 10.72ZM46.4109 10.72C46.4109 9.8 46.2243 9.08 45.8509 8.56C45.4909 8.02667 44.9709 7.76 44.2909 7.76C43.6109 7.76 43.0843 8.02667 42.7109 8.56C42.3376 9.08 42.1509 9.8 42.1509 10.72C42.1509 11.64 42.3376 12.3733 42.7109 12.92C43.0843 13.4533 43.6109 13.72 44.2909 13.72C44.9709 13.72 45.4909 13.4533 45.8509 12.92C46.2243 12.3733 46.4109 11.64 46.4109 10.72ZM58.0994 8.12C57.8327 8.05333 57.5194 7.98667 57.1594 7.92C56.7994 7.84 56.4127 7.8 55.9994 7.8C55.8127 7.8 55.586 7.82 55.3194 7.86C55.066 7.88667 54.8727 7.92 54.7394 7.96V16H51.7594V6.04C52.2927 5.85333 52.9194 5.68 53.6394 5.52C54.3727 5.34667 55.186 5.26 56.0794 5.26C56.2394 5.26 56.4327 5.27333 56.6594 5.3C56.886 5.31333 57.1127 5.34 57.3394 5.38C57.566 5.40667 57.7927 5.44667 58.0194 5.5C58.246 5.54 58.4394 5.59333 58.5994 5.66L58.0994 8.12Z" fill="#4387CA"/>
</svg>
